<svg xmlns="http://www.w3.org/2000/svg" viewBox="0 0 86.86 97.84">
  <defs>
    <style>
      .cls-1 {
        fill: #fff;
      }

      .cls-2 {
        fill: #232321;
      }

      .cls-3 {
        fill: #585857;
      }

      .cls-4 {
        fill: #2d9d94;
      }

      .cls-5 {
        fill: #333;
      }

      .cls-6 {
        fill: #ee0025;
      }
    </style>
  </defs>
  <title>Asset 1</title>
  <g id="Layer_2" data-name="Layer 2">
    <g id="body">
      <path class="cls-1" d="M70.82,78.44c-19.29,4.94-37.59,5.44-54.56,0V52.38H70.82Z"/>
    </g>
    <g id="head">
      <path class="cls-2" d="M17.11,8c1.09,1.3,8.26.21,8.27,1.92,0,2.84-8,8.63-10.72,10.87-1.36,1.14-1.5,3.79-3,4.22-3.28.92-8-1.65-10-4C-1.29,17.5-.19,11.77,4.09,8.18S14.19,4.51,17.11,8Z"/>
      <ellipse class="cls-3" cx="10.77" cy="15.45" rx="6.54" ry="5.21" transform="translate(-6.55 8.04) rotate(-31.97)"/>
      <path class="cls-2" d="M55.46,4.29c-.72,1.54-7.93,2.32-7.5,4,.71,2.75,10,6.29,13.15,7.77,1.61.76,2.42,3.28,4,3.31,3.41.05,7.31-3.65,8.63-6.45,1.93-4.11-.59-9.36-5.64-11.74S57.39.19,55.46,4.29Z"/>
      <ellipse class="cls-3" cx="63.5" cy="9.89" rx="5.21" ry="6.54" transform="translate(35.34 67.66) rotate(-72.86)"/>
      <ellipse class="cls-1" cx="39.2" cy="30.67" rx="34.47" ry="27.11" transform="translate(-2.48 3.46) rotate(-4.9)"/>
      <path class="cls-2" d="M37.53,58.84C19.7,58.84,4.87,48.12,3.63,33.7,2.3,18.26,17.08,4.34,36.57,2.67a40.46,40.46,0,0,1,25.6,6c7.19,4.72,11.5,11.46,12.14,19,1.32,15.44-13.45,29.36-32.94,31C40.08,58.79,38.79,58.84,37.53,58.84ZM40.46,4.5q-1.85,0-3.72.16C18.35,6.24,4.39,19.19,5.62,33.53S22.81,58.26,41.2,56.68,73.55,42.15,72.32,27.81c-.59-6.9-4.59-13.11-11.25-17.48A37.58,37.58,0,0,0,40.46,4.5Z"/>
      <circle class="cls-4" cx="26.46" cy="32.92" r="5.36"/>
      <circle class="cls-4" cx="51.98" cy="31.14" r="5.36"/>
      <circle cx="26.24" cy="33.14" r="4.19"/>
      <circle cx="51.55" cy="31.14" r="4.19"/>
      <path class="cls-1" d="M25,30a2.18,2.18,0,0,0-1.87,2.06A4.63,4.63,0,0,0,25,30Z"/>
      <path class="cls-1" d="M50,28a2.18,2.18,0,0,0-1.87,2.06A4.63,4.63,0,0,0,50,28Z"/>
      <path class="cls-2" d="M27,40.63a7,7,0,1,1,6.47-9.52c.05-.34.11-.67.15-1,.82-7.8-3.21-14.61-9-15.22s-11.15,5.22-12,13,3.21,14.61,9,15.22a9.13,9.13,0,0,0,7.22-2.74A7,7,0,0,1,27,40.63Z"/>
      <path class="cls-2" d="M63.78,23.44C61.18,16,54.61,11.63,49.12,13.56s-7.83,9.5-5.22,16.89a19,19,0,0,0,1.23,2.76,7,7,0,1,1,4.62,5.38c2.75,2,5.92,2.75,8.8,1.73C64.05,38.4,66.39,30.83,63.78,23.44Z"/>
      <ellipse class="cls-2" cx="40.02" cy="41.72" rx="4.99" ry="4.23"/>
      <path class="cls-1" d="M37.79,40.17a3.1,3.1,0,0,1,2.33-1.08C41.63,39.08,39.29,40.17,37.79,40.17Z"/>
      <path class="cls-2" d="M39.95,50.19a9.33,9.33,0,0,1-5.22-1.71.5.5,0,0,1,.62-.79,7.47,7.47,0,0,0,8.35.39.5.5,0,0,1,.53.85A8,8,0,0,1,39.95,50.19Z"/>
      <path class="cls-1" d="M9.54,21.17s.17-4.26-1.75-6.34c0,0,2.5-.58,3,.51a1.25,1.25,0,0,0-.58-1.5s5.17-.42,5.25,1.83Z"/>
      <path class="cls-1" d="M56.54,9.17s4.2-.77,5.8-3.1c0,0,1.11,2.31.16,3,0,0,1.13.09,1.34-.9,0,0,1.54,4.95-.64,5.52Z"/>
    </g>
    <g id="Layer_5" data-name="Layer 5">
      <path class="cls-5" d="M73,45.5s21.27,18.33,4.52,39.17S32,86.5,50.28,70.5,65.75,58.94,66,50.47Z"/>
      <path class="cls-2" d="M55.75,94.39c-6-1.29-10.72-5.32-12-10.26s.83-10,5.87-14.38c3.61-3.15,6.35-5.47,8.56-7.33,6.92-5.85,6.92-5.84,6.84-9.06,0-.76,0-1.86,0-2.86h0c2.17-.71,5.43-3,8.57-5.7l.06-.06c.22.19,21.81,19.21,4.65,40.55-5,6.16-11.57,9.55-18.31,9.55A20.11,20.11,0,0,1,55.75,94.39ZM67,51c0,.91,0,1.66,0,2.29.1,4.18-.18,4.43-7.54,10.65-2.2,1.86-4.93,4.17-8.53,7.32-4.45,3.88-6.31,8.28-5.25,12.38s5.2,7.67,10.48,8.8C63.55,94,71.24,90.89,76.75,84c6.68-8.3,8-17.15,3.91-26.3a36.93,36.93,0,0,0-7.74-11A25.41,25.41,0,0,1,67,51Z"/>
    </g>
    <g id="bat">
      <path class="cls-2" d="M42.89,71.5a19.06,19.06,0,0,1-2.5-3L40,73s.62,2-6.26,7c0,0,.28,5.67,4,5.17L45,79.33l5.77-1A19,19,0,0,1,47,75.52Z"/>
      <path class="cls-2" d="M40.61,65.83l-.22,2.67a19.06,19.06,0,0,0,2.5,3l4.13,4a19,19,0,0,0,3.75,2.81l5.77-1Z"/>
      <path class="cls-6" d="M47.68,74.84l-4.13-4A19,19,0,0,1,43.17,44l6.14-6.31a21.88,21.88,0,0,1,30.93-.42h0a21.88,21.88,0,0,1,.42,30.93l-6.14,6.31A19,19,0,0,1,47.68,74.84Z"/>
    </g>
    <g id="arm-l">
      <path class="cls-5" d="M12.32,48.5S-9,66.83,7.79,87.67,53.36,89.5,35,73.5s-15.47-11.56-15.73-20Z"/>
      <path class="cls-2" d="M25.33,97.84C18.59,97.84,12,94.45,7,88.29-10.14,67,11.45,47.93,11.67,47.74l.06.06c3.14,2.67,6.4,5,8.57,5.7h0c0,1,0,2.1,0,2.86-.08,3.23-.08,3.21,6.84,9.06,2.2,1.86,4.94,4.17,8.56,7.33,5,4.4,7.13,9.51,5.87,14.38s-6,9-12,10.26A20.11,20.11,0,0,1,25.33,97.84ZM12.4,49.79a36.93,36.93,0,0,0-7.74,11C.58,69.89,1.9,78.74,8.57,87c5.5,6.85,13.19,10,20.58,8.39,5.28-1.14,9.39-4.59,10.48-8.8s-.81-8.5-5.25-12.38c-3.6-3.14-6.33-5.46-8.53-7.32-7.36-6.23-7.65-6.47-7.54-10.65,0-.62,0-1.38,0-2.29A25.41,25.41,0,0,1,12.4,49.79Z"/>
    </g>
  </g>
</svg>
